{
  "asset": {
    "version": "2.0",
    "generator": "MillionaireClub-DemoModelGenerator"
  },
  "scene": 0,
  "scenes": [
    {
      "nodes": [
        0
      ]
    }
  ],
  "nodes": [
    {
      "mesh": 0,
      "scale": [
        1.7,
        1.2,
        1.5
      ]
    }
  ],
  "meshes": [
    {
      "primitives": [
        {
          "attributes": {
            "POSITION": 0
          },
          "indices": 1,
          "material": 0
        }
      ]
    }
  ],
  "materials": [
    {
      "pbrMetallicRoughness": {
        "baseColorFactor": [
          0.74,
          0.66,
          0.58,
          1
        ],
        "metallicFactor": 0.22,
        "roughnessFactor": 0.5
      }
    }
  ],
  "buffers": [
    {
      "uri": "data:application/octet-stream;base64,",
      "byteLength": 216
    }
  ],
  "bufferViews": [
    {
      "buffer": 0,
      "byteOffset": 0,
      "byteLength": 120,
      "target": 34962
    },
    {
      "buffer": 0,
      "byteOffset": 120,
      "byteLength": 96,
      "target": 34963
    }
  ],
  "accessors": [
    {
      "bufferView": 0,
      "componentType": 5126,
      "count": 10,
      "type": "VEC3",
      "min": [
        -1,
        0,
        -1
      ],
      "max": [
        1,
        1.8,
        1
      ]
    },
    {
      "bufferView": 1,
      "componentType": 5123,
      "count": 48,
      "type": "SCALAR",
      "min": [
        0
      ],
      "max": [
        9
      ]
    }
  ]
}